<?xml version="1.0" encoding="utf-8"?>
<!-- Generator: Adobe Illustrator 16.0.0, SVG Export Plug-In . SVG Version: 6.00 Build 0)  -->
<!DOCTYPE svg PUBLIC "-//W3C//DTD SVG 1.1//EN" "http://www.w3.org/Graphics/SVG/1.1/DTD/svg11.dtd">
<svg version="1.1" id="Layer_1" xmlns="http://www.w3.org/2000/svg" xmlns:xlink="http://www.w3.org/1999/xlink" x="0px" y="0px"
	 width="177.233px" height="75.178px" viewBox="0 0 177.233 75.178" enable-background="new 0 0 177.233 75.178"
	 xml:space="preserve">
<g>
	<path fill="#0E2D6D" d="M3.707,42.347c3.26,5.61,8.235,9.952,14.208,12.307c-3.8-2.354-7.42-5.159-10.678-8.506
		C5.97,44.971,4.884,43.704,3.707,42.347L3.707,42.347z"/>
	<path fill="#0E2D6D" d="M0.722,34.564c0.273,1.177,0.635,2.354,0.996,3.44c1.9,2.623,3.892,5.064,6.243,7.418
		c4.435,4.345,9.32,7.873,14.57,10.586c1.173,0.271,2.44,0.453,3.617,0.542c-6.333-2.801-12.216-6.783-17.373-11.942
		C5.609,41.534,2.985,38.094,0.722,34.564L0.722,34.564z"/>
	<path fill="#0E2D6D" d="M0,28.955c0,0.905,0.091,1.809,0.181,2.624c2.441,4.434,5.609,8.595,9.32,12.307
		c5.789,5.789,12.484,10.045,19.633,12.758c0.906,0,1.812-0.093,2.718-0.182c-7.874-2.622-15.295-7.058-21.629-13.393
		C5.97,38.819,2.622,34.022,0,28.955L0,28.955z"/>
	<path fill="#0E2D6D" d="M0.271,24.432c-0.09,0.723-0.18,1.447-0.18,2.174c2.531,5.697,6.242,11.036,10.947,15.741
		c6.697,6.697,14.659,11.219,23.163,13.662c0.725-0.09,1.449-0.27,2.174-0.54c-8.96-2.173-17.556-6.877-24.612-13.935
		C6.695,36.465,2.895,30.586,0.271,24.432L0.271,24.432z"/>
	<path fill="#0E2D6D" d="M1.086,20.45c-0.183,0.632-0.364,1.268-0.454,1.901c2.535,6.694,6.516,13.028,11.945,18.457
		c7.329,7.329,16.285,12.035,25.787,14.024c0.542-0.18,1.178-0.451,1.809-0.726C30.31,52.299,20.901,47.596,13.3,40.084
		C7.6,34.294,3.528,27.689,1.086,20.45L1.086,20.45z"/>
	<path fill="#0E2D6D" d="M2.352,17.101c-0.271,0.544-0.453,1.087-0.724,1.632C3.979,26.331,8.053,33.3,14.024,39.27
		c7.871,7.871,17.643,12.487,27.779,14.026c0.543-0.271,0.994-0.633,1.537-0.907c-10.406-1.267-20.539-5.879-28.503-13.843
		C8.685,32.303,4.522,24.974,2.352,17.101L2.352,17.101z"/>
	<path fill="#0E2D6D" d="M12.123,32.123c-1.628-0.363-2.894-1.811-2.894-3.619c0-0.183,0-0.363,0-0.545
		c-2.534-4.342-4.346-9.047-5.43-13.843c-0.271,0.451-0.544,0.906-0.725,1.446c1.992,8.145,6.154,15.836,12.486,22.171
		c8.143,8.144,18.55,12.757,29.137,13.754c0.451-0.365,0.904-0.636,1.355-0.997c-10.855-0.723-21.442-5.248-29.678-13.481
		C14.838,35.472,13.392,33.842,12.123,32.123L12.123,32.123z"/>
	<path fill="#0E2D6D" d="M10.495,25.788c-2.442-4.522-4.162-9.32-4.977-14.295c-0.271,0.452-0.543,0.812-0.905,1.266
		c0.905,4.886,2.624,9.593,5.157,13.934C9.951,26.331,10.223,26.061,10.495,25.788L10.495,25.788z"/>
	<path fill="#0E2D6D" d="M14.567,31.76c-0.271,0.182-0.725,0.363-1.086,0.363c1.086,1.449,2.352,2.803,3.62,4.161
		c8.411,8.324,19.181,12.76,30.129,13.21c0.363-0.36,0.724-0.722,1.178-1.083c-11.13-0.181-22.079-4.525-30.493-12.939
		C16.737,34.294,15.652,33.027,14.567,31.76L14.567,31.76z"/>
	<path fill="#0E2D6D" d="M44.065,47.054c1.717,0.182,3.528,0.271,5.338,0.271c0.27-0.271,0.543-0.634,0.814-0.905
		c-1.629,0.451-3.439,0.635-5.248,0.635C44.698,47.054,44.337,47.054,44.065,47.054L44.065,47.054z"/>
	<path fill="#0E2D6D" d="M19.454,33.932c-1.179-1.175-2.353-2.442-3.35-3.71c-0.181,0.364-0.362,0.636-0.633,0.904
		c0.994,1.269,1.989,2.446,3.168,3.619c5.881,5.793,12.938,9.592,20.447,11.402c-2.262-0.725-4.254-1.72-6.062-3.078
		C28.051,40.991,23.433,37.915,19.454,33.932L19.454,33.932z"/>
	<path fill="#0E2D6D" d="M12.577,24.974C9.771,20.09,8.053,14.659,7.418,9.229c-0.361,0.364-0.632,0.726-0.993,1.086
		c0.723,5.248,2.44,10.226,4.975,14.933C11.763,25.063,12.123,24.974,12.577,24.974L12.577,24.974z"/>
	<path fill="#0E2D6D" d="M29.769,39.903c-0.361-0.453-0.725-0.904-1.086-1.447c-2.715-1.629-5.34-3.711-7.691-6.062
		C13.933,25.428,10.042,16.468,9.41,7.239C9.046,7.603,8.685,7.873,8.324,8.235c0.633,5.881,2.441,11.581,5.519,16.828
		c1.537,0.453,2.714,1.812,2.714,3.44c0,0.18,0,0.361,0,0.542c1.087,1.447,2.263,2.805,3.62,4.161
		c3.077,3.077,6.514,5.612,10.225,7.512c0-0.091,0-0.091,0-0.091C30.221,40.446,30.04,40.174,29.769,39.903L29.769,39.903z"/>
	<path fill="#0E2D6D" d="M22.438,30.857c-6.967-6.97-10.676-16.019-10.947-25.247c-0.363,0.271-0.726,0.542-1.088,0.816
		c0.455,9.227,4.254,18.275,11.312,25.242c1.81,1.811,3.798,3.439,5.882,4.796c-0.271-0.544-0.543-1.177-0.814-1.9
		C25.333,33.479,23.888,32.214,22.438,30.857L22.438,30.857z"/>
	<path fill="#0E2D6D" d="M37.46,37.824c2.082,1.626,4.795,2.714,7.689,2.714c1.539,0,2.986-0.271,4.254-0.725
		C45.331,39.813,41.352,39.181,37.46,37.824L37.46,37.824z"/>
	<path fill="#0E2D6D" d="M23.978,29.315c-6.967-6.876-10.406-16.014-10.406-25.151c-0.36,0.18-0.723,0.451-1.086,0.631
		c0.182,9.23,3.711,18.37,10.769,25.337c0.993,0.994,1.99,1.898,3.075,2.805c-0.181-0.634-0.271-1.177-0.361-1.718
		C25.333,30.586,24.611,30.042,23.978,29.315L23.978,29.315z"/>
	<path fill="#0E2D6D" d="M25.788,28.141c-0.091-0.092-0.182-0.182-0.275-0.182C18.64,21.082,15.38,11.945,15.742,2.897
		c-0.362,0.18-0.723,0.45-1.085,0.633c-0.182,9.048,3.168,18.277,10.135,25.063c0.27,0.361,0.633,0.722,0.996,1.086
		C25.788,29.136,25.788,28.594,25.788,28.141L25.788,28.141z"/>
	<path fill="#0E2D6D" d="M34.653,34.294c0.272,0.632,0.545,1.178,0.905,1.627c5.157,2.264,10.768,3.078,16.196,2.717
		c0.635-0.363,1.178-0.813,1.719-1.269C47.143,38.185,40.536,37.188,34.653,34.294L34.653,34.294z"/>
	<path fill="#0E2D6D" d="M33.933,31.489c0.088,0.541,0.179,0.996,0.269,1.447c6.335,3.259,13.574,4.344,20.452,3.166
		c0.089-0.09,0.089-0.09,0.178-0.182c0.272-0.36,0.544-0.721,0.726-1.176C48.315,36.284,40.536,35.2,33.933,31.489L33.933,31.489z"
		/>
	<path fill="#0E2D6D" d="M26.059,25.336C20.087,18.732,17.37,10.225,18.006,1.9c-0.362,0.182-0.817,0.364-1.178,0.545
		c-0.452,8.686,2.534,17.552,9.05,24.338c0-0.178,0-0.359,0.09-0.543C25.968,25.97,26.059,25.608,26.059,25.336L26.059,25.336z"/>
	<path fill="#0E2D6D" d="M20.267,1.177c-0.451,0.091-0.813,0.18-1.176,0.362c-0.725,7.963,1.719,16.105,7.238,22.531
		c0.181-0.363,0.272-0.815,0.453-1.268C21.624,16.649,19.453,8.777,20.267,1.177L20.267,1.177z"/>
	<path fill="#0E2D6D" d="M36.282,30.312c-0.812-0.452-1.719-0.902-2.531-1.447c0,0.45,0,0.904,0,1.356
		c6.873,3.982,14.838,5.158,22.347,3.351c0.181-0.365,0.272-0.727,0.364-1.087c0-0.091,0-0.091,0-0.091
		c-5.883,1.537-12.217,1.178-17.918-1.086h-2.262V30.312L36.282,30.312z"/>
	<path fill="#0E2D6D" d="M33.751,27.689c0.812,0.543,1.719,0.994,2.531,1.446v-1.177c-0.812-0.451-1.629-0.994-2.441-1.535
		C33.751,26.876,33.751,27.327,33.751,27.689L33.751,27.689z"/>
	<path fill="#0E2D6D" d="M41.892,31.309c4.797,1.267,9.954,1.267,14.748-0.09c0-0.361,0-0.726,0.092-1.177
		c-0.18,0.09-0.361,0.09-0.543,0.18c0,0.364-0.091,0.725-0.091,1.087H41.892L41.892,31.309z"/>
	<path fill="#0E2D6D" d="M22.438,0.633c-0.361,0-0.724,0.092-1.083,0.182c-0.907,7.329,0.993,14.839,5.788,20.903
		c0.182-0.363,0.362-0.815,0.543-1.178C23.254,14.751,21.536,7.51,22.438,0.633L22.438,0.633z"/>
	<path fill="#0E2D6D" d="M28.954,18.549c-3.893-5.427-5.25-12.034-4.252-18.367c-0.362,0.091-0.725,0.091-1.178,0.181
		c-0.993,6.606,0.634,13.572,4.707,19.183l0,0C28.502,19.273,28.683,18.912,28.954,18.549L28.954,18.549z"/>
	<path fill="#0E2D6D" d="M56.731,28.321c0-0.089,0-0.272,0-0.452c-0.27,0.09-0.453,0.18-0.723,0.271
		c0,0.273,0.089,0.633,0.089,0.995c0.181-0.09,0.454-0.09,0.634-0.181C56.731,28.684,56.731,28.504,56.731,28.321L56.731,28.321z"/>
	<path fill="#0E2D6D" d="M34.021,25.247c0.725,0.541,1.538,1.084,2.262,1.536v-1.175h0.271c-0.812-0.454-1.536-0.906-2.262-1.449
		C34.201,24.522,34.111,24.884,34.021,25.247L34.021,25.247z"/>
	<path fill="#0E2D6D" d="M56.731,26.783c0-0.359-0.092-0.723-0.092-1.084c-0.361,0.089-0.631,0.18-0.993,0.271
		c0.091,0.361,0.182,0.723,0.182,1.087C56.098,26.965,56.462,26.876,56.731,26.783L56.731,26.783z"/>
	<path fill="#0E2D6D" d="M26.964,0c-0.362,0-0.815,0.092-1.176,0.092c-1.086,6.061,0.18,12.396,3.799,17.645
		c0.272-0.361,0.453-0.636,0.723-0.906C26.964,11.854,25.878,5.702,26.964,0L26.964,0z"/>
	<path fill="#0E2D6D" d="M41.622,25.608c-2.263-0.815-4.436-1.991-6.424-3.529c-0.181,0.272-0.365,0.635-0.545,0.995
		c1.269,0.996,2.625,1.81,4.072,2.534H41.622L41.622,25.608z"/>
	<path fill="#0E2D6D" d="M29.134,0c-0.271,0-0.543,0-0.724,0c-0.179,0-0.27,0-0.359,0c-1.177,5.431-0.093,11.221,3.074,16.107
		c0.272-0.271,0.542-0.545,0.817-0.725C28.954,10.769,28.051,5.158,29.134,0L29.134,0z"/>
	<path fill="#0E2D6D" d="M56.462,24.613c0-0.361-0.092-0.816-0.092-1.178c-0.452,0.182-0.813,0.271-1.267,0.452
		c0.179,0.364,0.271,0.726,0.362,1.086C55.828,24.793,56.188,24.702,56.462,24.613L56.462,24.613z"/>
	<path fill="#0E2D6D" d="M47.775,25.608c0-0.272,0-0.635,0-0.906c-3.982-0.271-7.872-1.719-11.222-4.252
		c-0.091,0.09-0.179,0.181-0.271,0.271c-0.18,0.182-0.36,0.361-0.541,0.454c3.074,2.442,6.514,3.889,10.133,4.434H47.775
		L47.775,25.608z"/>
	<path fill="#0E2D6D" d="M31.307,0.092c-0.362,0-0.724,0-1.086-0.092c-1.087,4.979-0.271,10.314,2.624,14.751
		c0.271-0.184,0.542-0.364,0.906-0.545C31.035,9.954,30.221,4.887,31.307,0.092L31.307,0.092z"/>
	<path fill="#0E2D6D" d="M56.098,22.439c0-0.36-0.089-0.722-0.18-1.085c-0.543,0.18-0.997,0.363-1.538,0.453
		c0.182,0.362,0.273,0.722,0.451,1.086C55.282,22.714,55.646,22.619,56.098,22.439L56.098,22.439z"/>
	<path fill="#0E2D6D" d="M47.052,22.439c-2.986-0.27-5.791-1.357-8.326-3.166c-0.452,0.182-0.813,0.363-1.176,0.543
		c2.986,2.263,6.424,3.529,9.954,3.801C47.413,23.255,47.23,22.803,47.052,22.439L47.052,22.439z"/>
	<path fill="#0E2D6D" d="M55.557,20.271c-0.091-0.273-0.182-0.634-0.274-0.997c-0.629,0.182-1.264,0.452-1.896,0.636
		c0.181,0.269,0.361,0.631,0.541,0.993C54.471,20.721,55.015,20.54,55.557,20.271L55.557,20.271z"/>
	<path fill="#0E2D6D" d="M44.337,19.726c-0.453-0.181-0.996-0.361-1.448-0.542c-0.905-0.271-1.901-0.271-2.806-0.182
		c1.9,1.176,4.072,1.9,6.152,2.264C45.695,20.631,45.062,20.09,44.337,19.726L44.337,19.726z"/>
	<path fill="#0E2D6D" d="M33.478,0.452c-0.361-0.09-0.723-0.18-1.086-0.18c-1.085,4.522-0.359,9.41,2.354,13.481
		c0.272-0.18,0.633-0.36,0.996-0.452C33.206,9.502,32.392,4.795,33.478,0.452L33.478,0.452z"/>
	<path fill="#0E2D6D" d="M54.921,18.28c-0.179-0.363-0.268-0.725-0.45-1.088c-0.724,0.363-1.538,0.635-2.353,0.725
		c0.271,0.363,0.453,0.724,0.725,0.995C53.566,18.732,54.198,18.549,54.921,18.28L54.921,18.28z"/>
	<path fill="#0E2D6D" d="M35.559,0.904c-0.36-0.09-0.726-0.18-1.085-0.271c-0.996,4.162-0.272,8.688,2.352,12.397
		c0.361-0.182,0.816-0.182,1.177-0.271C35.378,9.32,34.563,4.887,35.559,0.904L35.559,0.904z"/>
	<path fill="#0E2D6D" d="M40.716,12.487c-2.984-2.985-3.981-7.147-3.074-10.948c-0.363-0.09-0.725-0.271-1.088-0.362
		c-0.903,3.89,0,8.144,2.715,11.401C39.72,12.578,40.173,12.487,40.716,12.487L40.716,12.487z"/>
	<path fill="#0E2D6D" d="M51.394,17.013L51.394,17.013c0.904-0.092,1.809-0.363,2.625-0.726c-0.092-0.36-0.271-0.725-0.452-0.995
		c-0.995,0.361-2.085,0.635-3.167,0.725C50.761,16.378,51.122,16.649,51.394,17.013L51.394,17.013z"/>
	<path fill="#0E2D6D" d="M42.347,11.131c-2.443-2.354-3.26-5.7-2.627-8.777c-0.36-0.183-0.721-0.361-1.084-0.453
		c-0.814,3.439,0.18,7.328,2.894,10.045c0.274,0.181,0.454,0.452,0.726,0.633c1.086,0.091,2.172,0.361,3.256,0.631
		C44.337,12.759,43.251,12.035,42.347,11.131L42.347,11.131z"/>
	<path fill="#0E2D6D" d="M53.022,14.387c-0.18-0.361-0.36-0.724-0.545-0.993c-1.988,0.723-4.069,0.723-6.061,0.181
		c0.996,0.36,1.898,0.904,2.805,1.538C50.489,15.112,51.846,14.839,53.022,14.387L53.022,14.387z"/>
	<path fill="#0E2D6D" d="M51.937,12.487c-0.271-0.361-0.455-0.633-0.725-0.994c-2.531,0.723-5.338,0.088-7.328-1.9
		c-1.719-1.72-2.441-4.072-2.172-6.335c-0.36-0.181-0.725-0.36-1.088-0.452c-0.451,2.625,0.363,5.52,2.445,7.6
		C45.422,12.759,48.864,13.482,51.937,12.487L51.937,12.487z"/>
	<path fill="#0E2D6D" d="M50.489,10.589c-0.271-0.274-0.543-0.635-0.816-0.996c-1.537,0.18-3.076-0.364-4.251-1.538
		c-0.995-0.996-1.538-2.264-1.629-3.528c-0.362-0.183-0.724-0.454-1.087-0.636c-0.09,1.72,0.545,3.619,1.9,4.977
		C46.235,10.497,48.408,11.04,50.489,10.589L50.489,10.589z"/>
	<path fill="#0E2D6D" d="M48.771,8.597C47.594,7.42,46.326,6.335,44.97,5.34c0.18,0.723,0.541,1.447,1.176,1.989
		C46.87,8.055,47.775,8.506,48.771,8.597L48.771,8.597z"/>
	<g>
		<path fill="#0E2D6D" d="M77.116,19.08c-1.343,0-2.469,0.306-3.378,0.918c-0.908,0.612-1.648,1.401-2.222,2.369
			c-0.572,0.969-0.977,2.035-1.213,3.199c-0.238,1.166-0.355,2.322-0.355,3.467c0,1.105,0.117,2.231,0.355,3.377
			c0.236,1.146,0.621,2.183,1.154,3.11c0.533,0.929,1.254,1.688,2.162,2.281s2.016,0.889,3.318,0.889
			c2.015,0,3.564-0.563,4.651-1.688c1.086-1.126,1.767-2.637,2.044-4.531h8.115c-0.553,4.067-2.131,7.168-4.738,9.301
			s-5.945,3.199-10.013,3.199c-2.292,0-4.395-0.386-6.31-1.155c-1.917-0.771-3.547-1.846-4.889-3.229
			c-1.343-1.382-2.391-3.031-3.14-4.948c-0.751-1.915-1.126-4.019-1.126-6.31c0-2.369,0.346-4.57,1.037-6.606
			c0.689-2.034,1.708-3.791,3.051-5.273c1.342-1.479,2.982-2.636,4.918-3.466c1.935-0.829,4.146-1.244,6.636-1.244
			c1.816,0,3.563,0.236,5.243,0.712c1.678,0.475,3.18,1.194,4.503,2.161c1.321,0.969,2.399,2.174,3.229,3.615
			c0.828,1.443,1.303,3.149,1.422,5.124h-8.236C82.783,20.837,80.71,19.08,77.116,19.08z"/>
		<path fill="#0E2D6D" d="M104.665,13.57v4.146h0.119c1.105-1.579,2.439-2.804,4-3.673c1.559-0.869,3.348-1.305,5.361-1.305
			c1.934,0,3.703,0.376,5.301,1.126c1.602,0.751,2.816,2.074,3.645,3.971c0.908-1.343,2.143-2.527,3.703-3.555
			s3.408-1.542,5.539-1.542c1.621,0,3.121,0.199,4.504,0.593c1.383,0.396,2.566,1.028,3.555,1.896
			c0.986,0.87,1.756,2.005,2.311,3.406c0.553,1.403,0.83,3.092,0.83,5.066V44.2h-8.414V26.841c0-1.026-0.039-1.994-0.117-2.902
			c-0.08-0.909-0.297-1.698-0.652-2.371c-0.355-0.671-0.879-1.203-1.57-1.599c-0.689-0.396-1.629-0.593-2.812-0.593
			c-1.186,0-2.146,0.229-2.875,0.681c-0.732,0.455-1.305,1.047-1.719,1.778c-0.414,0.73-0.691,1.561-0.828,2.488
			c-0.141,0.928-0.207,1.865-0.207,2.813V44.2h-8.414V27.019c0-0.908-0.021-1.808-0.061-2.695c-0.039-0.89-0.205-1.709-0.502-2.46
			c-0.297-0.749-0.791-1.352-1.48-1.807c-0.691-0.452-1.709-0.681-3.053-0.681c-0.395,0-0.918,0.088-1.568,0.267
			c-0.654,0.178-1.285,0.514-1.896,1.007c-0.613,0.494-1.135,1.205-1.57,2.133c-0.436,0.929-0.652,2.144-0.652,3.644V44.2h-8.413
			V13.57H104.665z"/>
		<path fill="#0E2D6D" d="M148.319,22.99c0.121-1.975,0.613-3.614,1.482-4.918c0.869-1.303,1.975-2.35,3.318-3.14
			c1.342-0.791,2.854-1.354,4.531-1.689c1.678-0.335,3.365-0.504,5.064-0.504c1.543,0,3.102,0.109,4.682,0.326
			c1.58,0.218,3.021,0.643,4.326,1.273c1.303,0.633,2.369,1.513,3.199,2.638c0.828,1.125,1.244,2.617,1.244,4.473v15.938
			c0,1.382,0.078,2.705,0.236,3.969c0.158,1.265,0.436,2.212,0.83,2.844h-8.531c-0.158-0.473-0.287-0.957-0.387-1.451
			c-0.098-0.493-0.166-0.997-0.207-1.511c-1.342,1.383-2.924,2.351-4.74,2.903s-3.672,0.829-5.568,0.829
			c-1.461,0-2.824-0.177-4.088-0.532c-1.266-0.355-2.371-0.908-3.318-1.66c-0.947-0.75-1.688-1.697-2.221-2.844
			c-0.535-1.146-0.801-2.508-0.801-4.088c0-1.738,0.305-3.17,0.918-4.295c0.613-1.126,1.402-2.024,2.371-2.695
			c0.967-0.672,2.074-1.176,3.316-1.513c1.246-0.334,2.498-0.602,3.764-0.8c1.264-0.196,2.508-0.355,3.732-0.473
			c1.223-0.119,2.309-0.297,3.258-0.533c0.949-0.238,1.699-0.583,2.252-1.038c0.553-0.453,0.811-1.115,0.77-1.983
			c0-0.909-0.148-1.631-0.445-2.163c-0.297-0.533-0.691-0.947-1.184-1.244c-0.494-0.297-1.066-0.493-1.717-0.593
			c-0.652-0.098-1.355-0.148-2.105-0.148c-1.658,0-2.961,0.355-3.908,1.067c-0.949,0.711-1.504,1.896-1.66,3.555H148.319z
			 M167.753,29.212c-0.355,0.315-0.801,0.562-1.332,0.739c-0.535,0.178-1.107,0.326-1.719,0.444
			c-0.613,0.119-1.256,0.218-1.926,0.296c-0.672,0.081-1.342,0.179-2.014,0.297c-0.633,0.118-1.256,0.276-1.867,0.474
			c-0.611,0.198-1.146,0.465-1.6,0.801c-0.455,0.336-0.82,0.761-1.096,1.273c-0.277,0.514-0.416,1.165-0.416,1.955
			c0,0.75,0.139,1.383,0.416,1.896c0.275,0.514,0.65,0.918,1.125,1.214s1.027,0.504,1.66,0.622s1.283,0.178,1.953,0.178
			c1.66,0,2.943-0.275,3.852-0.829c0.91-0.554,1.582-1.215,2.016-1.985c0.434-0.77,0.701-1.549,0.799-2.34
			c0.1-0.789,0.148-1.422,0.148-1.896V29.212z"/>
	</g>
	<text transform="matrix(1 0 0 1 40.0908 69.1357)" fill="#0E2D6D" font-family="'HelveticaNeue-Bold'" font-size="12.5622">Standard ECMA-262</text>
</g>
</svg>
