<?xml version="1.0" encoding="utf-8"?>
<!-- Generator: Adobe Illustrator 16.0.0, SVG Export Plug-In . SVG Version: 6.00 Build 0)  -->
<!DOCTYPE svg PUBLIC "-//W3C//DTD SVG 1.1//EN" "http://www.w3.org/Graphics/SVG/1.1/DTD/svg11.dtd">
<svg version="1.1" id="Layer_1" xmlns="http://www.w3.org/2000/svg" xmlns:xlink="http://www.w3.org/1999/xlink" x="0px" y="0px"
	 width="143.498px" height="118.518px" viewBox="0 0 143.498 118.518" enable-background="new 0 0 143.498 118.518"
	 xml:space="preserve">
<path fill="#205FAC" d="M125.83,59.259c0,32.506-26.779,59.259-59.319,59.259c-32.539,0-59.319-26.754-59.319-59.259
	C7.191,26.751,33.345,0,66.511,0C98.421,0,125.83,26.752,125.83,59.259"/>
<path fill="#FFFFFF" d="M79.892,90.449c25.342,10.425,20.943-15.921,7.437-36.094c-7.656-11.429-17.642-20.948-23.94-25.545
	C42.505,13.569,29.614,22.814,44.36,52.872c4.769,9.718,10.892,16.277,15.675,22.46c3.652,4.721,10.768,7.084,8.262,9.324
	c-2.824,2.524-9.664-8.613-9.664-8.613c-5.05-6.094-9.865-12.592-14.826-21.512C32.47,34.158,34.104,13.365,54.622,22.422
	c17.414,7.69,34.045,29.261,40.732,44.58c3.09,7.07,11.511,35.058-15.311,23.743"/>
<path fill="#EE2C3E" d="M1.083,76.826c11.147-7.426,21.719-12.22,39.707-18.16c25.278-8.352,44.303-13.963,67.645-25.697
	c10.447-5.251,28.578-17.027,35.062-27.264c-1.941,3.962-7.955,11.674-10.674,15.085C101.151,60.448,33.688,58.198,1.527,77.236"/>
<path fill="#FFFFFF" d="M67.346,5.382c0,0.265-0.217,0.483-0.482,0.483c-0.265,0-0.483-0.219-0.483-0.483
	c0-0.264,0.219-0.482,0.483-0.482C67.129,4.899,67.346,5.118,67.346,5.382"/>
<path fill="#FFFFFF" d="M70.696,12.698c0,0.325-0.271,0.594-0.596,0.594c-0.325,0-0.595-0.269-0.595-0.594
	c0-0.326,0.27-0.595,0.595-0.595C70.425,12.104,70.696,12.372,70.696,12.698"/>
<path fill="#FFFFFF" d="M79.388,24.652c0,0.326-0.266,0.596-0.594,0.596c-0.326,0-0.596-0.27-0.596-0.596
	c0-0.324,0.25-0.594,0.576-0.594C79.103,24.058,79.388,24.327,79.388,24.652"/>
<path fill="#FFFFFF" d="M65.414,16.818c0,0.266-0.218,0.482-0.483,0.482c-0.265,0-0.484-0.217-0.484-0.482
	c0-0.265,0.22-0.482,0.484-0.482C65.196,16.335,65.414,16.554,65.414,16.818"/>
<path fill="#FFFFFF" d="M70.62,19.566c0,0.265-0.218,0.483-0.481,0.483c-0.266,0-0.484-0.219-0.484-0.483
	c0-0.264,0.219-0.481,0.484-0.481C70.402,19.084,70.62,19.302,70.62,19.566"/>
<path fill="#FFFFFF" d="M63.854,11.879c0,0.326-0.268,0.594-0.595,0.594c-0.326,0-0.594-0.268-0.594-0.594s0.268-0.595,0.594-0.595
	C63.587,11.285,63.854,11.554,63.854,11.879"/>
<path fill="#FFFFFF" d="M55.977,16.67c0,0.265-0.217,0.482-0.483,0.482c-0.266,0-0.483-0.218-0.483-0.482
	c0-0.264,0.218-0.483,0.483-0.483C55.76,16.187,55.977,16.406,55.977,16.67"/>
<path fill="#FFFFFF" d="M57.386,17.634c0,0.266-0.218,0.484-0.483,0.484c-0.265,0-0.484-0.22-0.484-0.484
	c0-0.264,0.219-0.481,0.484-0.481C57.168,17.153,57.386,17.37,57.386,17.634"/>
<path fill="#FFFFFF" d="M58.799,18.6c0,0.267-0.218,0.484-0.483,0.484s-0.483-0.218-0.483-0.484c0-0.263,0.219-0.48,0.483-0.48
	C58.581,18.119,58.799,18.336,58.799,18.6"/>
<path fill="#FFFFFF" d="M56.646,20.458c0,0.264-0.219,0.481-0.482,0.481c-0.266,0-0.485-0.218-0.485-0.481
	c0-0.266,0.22-0.482,0.485-0.482C56.427,19.976,56.646,20.193,56.646,20.458"/>
<path fill="#FFFFFF" d="M45.42,28.329c0,0.266-0.219,0.481-0.484,0.481s-0.482-0.217-0.482-0.481c0-0.266,0.218-0.483,0.482-0.483
	C45.201,27.845,45.42,28.063,45.42,28.329"/>
<path fill="#FFFFFF" d="M47.501,30.854c0,0.266-0.219,0.483-0.484,0.483s-0.484-0.218-0.484-0.483s0.22-0.482,0.484-0.482
	C47.282,30.372,47.501,30.588,47.501,30.854"/>
<path fill="#FFFFFF" d="M45.848,71.625c0,0.266-0.219,0.481-0.484,0.481c-0.265,0-0.483-0.217-0.483-0.481s0.218-0.483,0.483-0.483
	C45.629,71.142,45.848,71.361,45.848,71.625"/>
<path fill="#FFFFFF" d="M46.144,82.873c0,0.326-0.269,0.594-0.595,0.594c-0.326,0-0.594-0.268-0.594-0.594s0.268-0.595,0.594-0.595
	C45.875,82.279,46.144,82.546,46.144,82.873"/>
<path fill="#FFFFFF" d="M39.749,88.632c0,0.264-0.218,0.482-0.482,0.482c-0.264,0-0.482-0.22-0.482-0.482
	c0-0.267,0.218-0.482,0.482-0.482C39.531,88.15,39.749,88.366,39.749,88.632"/>
<path fill="#FFFFFF" d="M32.094,90.966c0,0.326-0.27,0.593-0.595,0.593s-0.596-0.267-0.596-0.593s0.271-0.595,0.596-0.595
	S32.094,90.64,32.094,90.966"/>
<path fill="#FFFFFF" d="M30.532,85.77c0,0.323-0.268,0.595-0.594,0.595c-0.325,0-0.594-0.271-0.594-0.595
	c0-0.327,0.269-0.595,0.594-0.595C30.265,85.175,30.532,85.443,30.532,85.77"/>
<path fill="#FFFFFF" d="M29.643,89.075c0,0.266-0.22,0.482-0.485,0.482c-0.265,0-0.483-0.218-0.483-0.482s0.219-0.483,0.483-0.483
	C29.423,88.591,29.643,88.811,29.643,89.075"/>
<path fill="#FFFFFF" d="M23.916,86.328c0,0.266-0.218,0.482-0.481,0.482c-0.267,0-0.484-0.218-0.484-0.482s0.218-0.481,0.484-0.481
	C23.698,85.846,23.916,86.064,23.916,86.328"/>
<path fill="#FFFFFF" d="M43.913,95.609c0,0.267-0.201,0.484-0.465,0.484c-0.265,0-0.502-0.219-0.502-0.484
	c0-0.264,0.22-0.481,0.484-0.481C43.694,95.127,43.913,95.345,43.913,95.609"/>
<path fill="#FFFFFF" d="M49.935,91.193c0,0.326-0.25,0.595-0.576,0.595c-0.325,0-0.612-0.269-0.612-0.595
	c0-0.323,0.269-0.593,0.595-0.593C49.668,90.6,49.935,90.869,49.935,91.193"/>
<path fill="#FFFFFF" d="M50.624,96.873c0,0.264-0.237,0.483-0.501,0.483c-0.266,0-0.484-0.221-0.484-0.483
	c0-0.264,0.219-0.482,0.484-0.482C50.387,96.39,50.624,96.609,50.624,96.873"/>
<path fill="#FFFFFF" d="M75.375,91.449c0,0.266-0.22,0.483-0.481,0.483c-0.267,0-0.484-0.219-0.484-0.483
	c0-0.266,0.219-0.481,0.484-0.481C75.155,90.967,75.375,91.184,75.375,91.449"/>
<path fill="#FFFFFF" d="M63.854,95.534c0,0.266-0.218,0.482-0.483,0.482c-0.264,0-0.482-0.218-0.482-0.482s0.219-0.481,0.482-0.481
	C63.637,95.052,63.854,95.27,63.854,95.534"/>
<path fill="#FFFFFF" d="M94.851,101.406c0,0.264-0.217,0.48-0.481,0.48s-0.484-0.218-0.484-0.48c0-0.267,0.22-0.483,0.484-0.483
	S94.851,101.139,94.851,101.406"/>
<path fill="#FFFFFF" d="M97.378,78.566c0,0.326-0.268,0.597-0.596,0.597c-0.326,0-0.594-0.271-0.594-0.597
	c0-0.324,0.268-0.594,0.594-0.594C97.11,77.972,97.378,78.241,97.378,78.566"/>
<path fill="#FFFFFF" d="M92.625,81.796c0,0.265-0.22,0.481-0.483,0.481c-0.266,0-0.484-0.218-0.484-0.481
	c0-0.266,0.219-0.482,0.484-0.482C92.405,81.314,92.625,81.531,92.625,81.796"/>
<path fill="#FFFFFF" d="M97.306,82.727c0,0.325-0.268,0.596-0.594,0.596s-0.596-0.271-0.596-0.596s0.27-0.595,0.596-0.595
	S97.306,82.402,97.306,82.727"/>
<path fill="#FFFFFF" d="M92.625,88.482c0,0.265-0.22,0.482-0.483,0.482c-0.266,0-0.484-0.219-0.484-0.482
	c0-0.266,0.219-0.483,0.484-0.483C92.405,87.998,92.625,88.216,92.625,88.482"/>
<path fill="#FFFFFF" d="M104.737,75.335c0,0.266-0.219,0.483-0.483,0.483c-0.264,0-0.481-0.219-0.481-0.483s0.219-0.48,0.481-0.48
	C104.519,74.855,104.737,75.073,104.737,75.335"/>
<path fill="#FFFFFF" d="M105.91,78.269c0,0.328-0.248,0.597-0.574,0.597c-0.328,0-0.612-0.269-0.612-0.597
	c0-0.326,0.268-0.592,0.592-0.592C105.642,77.677,105.91,77.943,105.91,78.269"/>
<path fill="#FFFFFF" d="M114.255,81.761c0,0.324-0.268,0.593-0.596,0.593c-0.326,0-0.594-0.269-0.594-0.593
	c0-0.325,0.268-0.596,0.594-0.596C113.987,81.166,114.255,81.436,114.255,81.761"/>
<path fill="#FFFFFF" d="M105.778,87.963c0,0.265-0.221,0.482-0.483,0.482s-0.483-0.219-0.483-0.482c0-0.268,0.221-0.483,0.483-0.483
	S105.778,87.698,105.778,87.963"/>
<path fill="#FFFFFF" d="M111.132,82.913c0,0.265-0.219,0.481-0.482,0.481c-0.266,0-0.483-0.218-0.483-0.481
	c0-0.265,0.219-0.483,0.483-0.483C110.914,82.429,111.132,82.648,111.132,82.913"/>
<path fill="#FFFFFF" d="M110.144,90.71c0,0.266-0.219,0.48-0.481,0.48c-0.267,0-0.483-0.216-0.483-0.48
	c0-0.266,0.219-0.484,0.483-0.484C109.925,90.226,110.144,90.445,110.144,90.71"/>
<path fill="#FFFFFF" d="M112.414,77.75c0,0.408-0.336,0.743-0.744,0.743c-0.405,0-0.744-0.335-0.744-0.743
	c0-0.406,0.339-0.741,0.744-0.741C112.078,77.009,112.414,77.344,112.414,77.75"/>
<path fill="#FFFFFF" d="M111.669,75.488l-0.223,2.041l-2.025,0.225l2.041,0.222l0.225,2.117l0.226-2.117l2.006-0.259l-2.024-0.188
	L111.669,75.488"/>
<path fill="#FFFFFF" d="M107.207,90.669c0,0.408-0.334,0.742-0.742,0.742c-0.407,0-0.743-0.334-0.743-0.742s0.336-0.741,0.743-0.741
	C106.873,89.928,107.207,90.261,107.207,90.669"/>
<path fill="#FFFFFF" d="M106.468,88.406l-0.225,2.042l-2.025,0.224l2.043,0.223l0.225,2.116l0.226-2.116l2.006-0.26l-2.026-0.187
	L106.468,88.406"/>
<path fill="#FFFFFF" d="M51.756,29.33c0,0.407-0.335,0.743-0.742,0.743c-0.41,0-0.744-0.336-0.744-0.743
	c0-0.408,0.334-0.742,0.744-0.742C51.421,28.588,51.756,28.922,51.756,29.33"/>
<path fill="#FFFFFF" d="M51.012,27.065l-0.224,2.042l-2.026,0.225l2.045,0.222l0.224,2.118l0.222-2.118l2.008-0.259l-2.026-0.188
	L51.012,27.065"/>
<path fill="#FFFFFF" d="M79.408,11.361c0,0.407-0.337,0.742-0.742,0.742c-0.408,0-0.742-0.335-0.742-0.742s0.334-0.743,0.742-0.743
	C79.071,10.617,79.408,10.953,79.408,11.361"/>
<path fill="#FFFFFF" d="M78.664,9.093l-0.222,2.043l-2.024,0.223l2.043,0.224l0.224,2.117l0.223-2.117l2.008-0.26l-2.027-0.187
	L78.664,9.093"/>
<path fill="#FFFFFF" d="M45.79,102.557c0,0.407-0.335,0.741-0.742,0.741c-0.409,0-0.744-0.334-0.744-0.741s0.335-0.743,0.744-0.743
	C45.455,101.814,45.79,102.15,45.79,102.557"/>
<path fill="#FFFFFF" d="M45.064,100.289l-0.222,2.041l-2.026,0.225l2.044,0.222l0.224,2.116l0.223-2.116l2.007-0.26l-2.025-0.187
	L45.064,100.289"/>
<path fill="#EE2C3E" d="M8.622,72.147C5.376,73.736,2.468,75.305,0,76.837l1.501,0.545c2.158-1.327,4.75-2.713,7.478-3.938"/>
<path fill="#EE2C3E" d="M25.762,102.159c-2.967,2.591-6.035,5.354-9.111,8.253l-0.135,2.048c2.816-2.901,6.277-6.035,10.271-9.36"/>
<path fill="#FFFFFF" d="M79.892,90.449c25.342,10.425,20.943-15.921,7.437-36.094c-7.656-11.429-17.099-20.494-23.94-25.545
	c-7.988-5.897-8.768-6.387-8.768-6.387c17.838,8.467,34.045,29.26,40.73,44.58c3.088,7.071,11.51,35.059-15.311,23.742"/>
<g>
	<path fill="#FFFFFF" d="M70.077,83.049l-1.918-14.135h3.229c0.703,2.431,1.62,4.499,2.75,6.204c1.13,1.706,2.548,2.995,4.253,3.869
		c1.705,0.875,3.795,1.312,6.268,1.312c2.195,0,3.928-0.576,5.197-1.727c1.268-1.151,1.902-2.644,1.902-4.478
		c0-1.556-0.502-2.91-1.504-4.061c-0.277-0.362-0.953-0.896-2.029-1.6c-1.078-0.703-3.172-2.073-6.284-4.109
		c-3.113-2.035-5.415-3.597-6.907-4.685c-1.492-1.087-2.516-1.972-3.07-2.654c-2.047-2.515-3.07-5.372-3.07-8.569
		c0-1.578,0.277-3.166,0.832-4.765c0.555-1.6,1.455-3.07,2.702-4.413c1.247-1.344,2.942-2.431,5.085-3.262
		c2.143-0.832,4.748-1.247,7.818-1.247c1.3,0,2.467,0.053,3.502,0.159c1.033,0.107,1.875,0.229,2.525,0.368s1.449,0.341,2.398,0.607
		s1.68,0.475,2.191,0.624c0.83,0.277,1.48,0.415,1.949,0.415c0.619,0,1.104-0.128,1.455-0.384c0.353-0.256,0.528-0.564,0.528-0.927
		l2.75-0.353l1.023,13.048h-2.942c-0.191-1.194-0.629-2.388-1.311-3.582c-0.683-1.193-1.6-2.297-2.75-3.31
		c-1.151-1.013-2.494-1.823-4.029-2.431s-3.178-0.911-4.925-0.911c-1.728,0-3.124,0.432-4.188,1.295
		c-1.066,0.863-1.6,1.967-1.6,3.31c0,1.109,0.304,2.058,0.912,2.847c0.607,0.789,1.502,1.566,2.686,2.334s3.352,2.068,6.508,3.901
		c2.558,1.407,4.764,2.761,6.619,4.062c1.854,1.301,3.277,2.516,4.27,3.646c0.99,1.13,1.727,2.313,2.206,3.55
		s0.783,2.665,0.911,4.284c0.043,0.342,0.064,0.843,0.064,1.503c0,3.05-0.8,5.698-2.398,7.947c-1.6,2.249-3.827,3.976-6.684,5.18
		c-2.857,1.205-6.141,1.808-9.85,1.808c-0.853,0-1.796-0.043-2.83-0.128c-1.034-0.086-2.238-0.246-3.613-0.48
		s-2.756-0.533-4.141-0.895c-0.832-0.171-1.557-0.256-2.175-0.256c-0.96,0-1.438,0.362-1.438,1.087H70.077z"/>
	<path fill="#FFFFFF" d="M52.394,36.041c-4.52,0-9.167-0.245-13.942-0.735v3.357c2.579,0,4.242,0.459,4.989,1.375
		c0.746,0.917,1.119,2.11,1.119,3.582v6.426v12.5v8.738c0,2.75-0.336,4.706-1.007,5.868c-0.672,1.162-1.647,1.743-2.926,1.743
		c-1.322-0.064-2.26-0.4-2.814-1.008s-1.023-1.486-1.407-2.638c-0.384-1.151-0.848-2.062-1.391-2.734
		c-0.544-0.672-1.444-1.061-2.702-1.167c-3.709,0-5.564,1.812-5.564,5.437c0,0.703,0.064,1.375,0.192,2.014
		c0.619,3.326,3.646,4.989,9.082,4.989c2.345,0,4.876-0.331,7.595-0.991c2.718-0.661,5.095-1.583,7.131-2.767
		c2.036-1.183,3.757-2.638,5.165-4.365c1.407-1.727,2.451-3.629,3.134-5.708c0.683-2.078,1.023-4.364,1.023-6.859v-0.552v-12.5
		V43.62c0-1.492,0.442-2.691,1.327-3.598s2.51-1.359,4.877-1.359v-3.357C61.603,35.796,56.978,36.041,52.394,36.041z"/>
</g>
<path fill="#EE2C3E" d="M143.492,5.705c-9.039,26.818-45.255,47.527-75.739,67.298c-18.391,11.93-36.65,25.66-49.22,37.346
	c-3.313,3.082,0.675-1.151-0.595,0.148c17.542-20.198,37.722-32.229,48.873-39.8c18.859-12.813,29.584-16.042,62.122-46.012"/>
</svg>
